<svg height="1994" width="3400" xml:space="preserve" xmlns="http://www.w3.org/2000/svg"><g class="layer"><path d="M502 1003c-44-45-84-91-118-143-22-33-42-69-54-107-26-85-10-162 46-230a247 247 0 0 1 376 2l4 3 7-7a249 249 0 0 1 349-23 239 239 0 0 1 81 168c4 48-10 92-31 135-21 45-50 86-82 125a1640 1640 0 0 1-286 260l-38 26c-91-62-176-130-254-209z" fill="#F4436C"></path><path d="M974 1289a829 829 0 0 1 231-96c27-5 53-7 80-6a199 199 0 0 1 120 47c22 21 41 44 55 72 9 17 14 34 13 54v19c1 30-11 56-30 79a206 206 0 0 1-143 74c-56 5-109-6-161-25-58-20-112-50-164-83l-46-30-8-5c-44 24-222 163-241 188l121 1c2 7 3 38 1 53l-9 1H598c-13 0-26-11-26-25v-204c7-2 41-2 55 0v141c41-34 80-67 121-99 40-32 81-62 123-94-32-25-64-52-92-84l46-32 5 4c44 45 94 83 146 118 40 27 81 52 125 73 41 19 82 35 127 42 40 7 80 6 118-11 25-11 47-27 61-50 16-29 16-58-1-87-11-19-24-36-42-50-23-19-50-28-79-30-47-4-91 7-134 22-29 10-56 22-83 36l-46 24-46-32-2-5z" fill="#F2426B"></path><path d="M2481 1346c8 17 17 33 20 51l1 13 2 61c0 33-1 66 1 99l1 64a254 254 0 0 1-6 71c0 12-5 22-10 31-18 28-45 44-76 53a126 126 0 0 1-129-29c-15-14-27-31-33-51-3-10-4-21-6-32l-2-43a19986 19986 0 0 1 3-250c1-13 6-25 15-35a382 382 0 0 1 38-33c11-5 22-11 34-15 12-3 25-4 38-5h20c8 0 15 1 23 5l10 5c16 3 29 13 42 22 5 4 9 11 13 18m-60 266v-25l-1-31-3-55 2-18-2-28v-36c0-10-5-19-13-26-13-11-27-12-42-8-21 6-31 17-31 39v100l-1 6v31l3 58v47c0 12 5 23 12 33 6 9 17 9 27 9 25 2 50-15 49-48l1-22-1-26zm-222-507 1-43 1-11-2-64 2-91c0-19-1-37 1-56 1-17 6-34 21-45l12-13c8-9 18-15 29-19l21-9 21-5c17-3 34-5 52-1h3l44 19c20 10 31 27 40 46 7 17 13 34 12 53l2 37v119c5 13 2 27 2 40v54l-3 21a649 649 0 0 1-6 36c-7 15-16 29-30 40-17 12-34 22-55 28-9 2-19 5-29 6-9 1-18-1-27-1-29-2-51-18-72-36-26-23-37-54-38-88l-2-17m88-20v27c0 14 5 26 11 37 2 4 7 7 10 8 16 4 31 4 46-4 15-10 21-25 21-42v-13l2-25-2-49v-14l-2-30-2-111-2-12c-5-13-27-26-41-23-6 1-13 2-20 5-12 4-20 13-21 27v14l-2 79 2 126zm535-544c16 49 22 100 33 151l-23 2-39 2-15-2c-10-1-9-1-11-11l-15-58-5-25c-31-2-61 2-92 2-9 30-11 62-23 92-27 4-54 3-83 2v-9l22-124 11-46c3-12 3-24 5-35l4-23c9-35 17-70 22-105l10-41 6-31 12-65c2-8 6-12 14-13 23-2 45-3 68 0h18c10 1 11 2 13 12l9 48 28 129 19 86 12 62m-99-62c-6-33-15-65-23-100l-30 135c20 0 39 2 59-2l-6-33zm453 364h-30l-26-1h-91l-1 2c-1 28-3 55-3 83 0 10 2 19 3 28h133c6 28 6 55 2 83h-133c-4 39-4 77-2 115 57 1 114 7 172 0 8 29 4 58-1 87l-18-2h-23l-43-2-64 4-99 2c-9 0-11-3-11-12v-3l-2-104v-59l2-43-2-24-2-32 2-19c0-29 1-57-1-85-2-20 1-41 1-62v-34c0-8 2-10 11-11a8962 8962 0 0 1 187-2l59 2 4 1c8 29 6 59-1 88h-23zm11 520c16 34 17 69 12 107l-13 2-32 2c-12 1-23-2-34-4-4-1-7-4-7-9 1-6 2-12 1-19-1-16-1-32-11-46-4-5-8-9-14-8l-4-1c-15-8-28-1-41 4-11 4-18 18-17 30 2 15 7 28 17 41 13 18 29 35 48 48 16 12 31 25 45 39l18 16c14 14 24 29 32 46 7 14 9 29 11 43 3 28-5 52-13 77l-2 4c-8 9-14 20-23 28a98 98 0 0 1-58 27c-17 2-34 2-51 2-9 1-18 1-27-1-15-3-26-11-38-19-12-7-22-17-29-30-4-9-9-18-11-28a270 270 0 0 1-6-76c3-14 3-14 17-16 16-2 32 0 48 1l11 1c9 0 11 2 11 10v30l2 23c3 12 9 19 21 23 17 6 31 4 45-6 17-13 19-27 15-46-4-20-15-35-31-48l-61-53-42-36a92 92 0 0 1-35-74l-2-17c-1-15 1-30 6-45l4-14c9-25 26-43 49-55 26-14 54-21 83-20l32 4c6 1 11 5 16 7l4 3a120 120 0 0 1 54 53zm-356-608 18 3c0 11-3 22-5 32l-22 95c-5 25-8 51-14 76l-26 114-13 67-12 59-12 41-41 2-14 2c-15 0-30-1-44-5-6-2-8-5-9-10l-24-106-19-91-14-69c-3-15-7-29-9-44-2-25-10-49-15-73-5-28-12-55-18-82-1-6 0-9 6-10 6-2 13-5 21-6 20-2 40 1 60 7l8 32 20 100 20 97 19 76 3-6 18-77 14-62 32-141 5-19c21-7 43-9 67-2zm-942-145v-62l-2-107 2-86v-82l-2-54c0-9 2-11 11-12h14c17 1 34 4 51 2h18l16-1c13 1 26 4 39 4a161 161 0 0 1 70 23c14 15 27 30 33 50 7 19 8 39 8 58a259 259 0 0 1-17 100c-1 5-4 9-7 12a146 146 0 0 1-117 45h-31l-2 44v145c-27 11-54 9-82 2-4-26-2-53-2-81m123-196 30-6c8-2 11-8 14-16l4-27c3-20 1-40-9-59-3-5-6-8-12-10-22-6-43-4-66-2v100l2 18 37 2zm613 886 39 3c22 50 33 106 59 156 25-50 43-102 61-155 30-4 60-3 89 0 6 5 3 11 1 16l-17 39c-14 31-26 62-39 94l-47 109c-5 13-7 26-6 40l2 59-2 80v48c-29 3-57 8-86 0v-25c0-10 2-20 1-29l-2-32-1-12v-43l2-65c1-6-1-11-3-17l-17-44-22-50-34-86-17-40-15-35c-2-5 0-8 5-9l27-2h22zm362-1068 24 72 25 62c6-14 12-25 16-37l41-109c3-8 7-11 15-12 27-3 53-1 79 1 3 6 2 12 0 17l-32 70-8 22-27 64-25 61-15 34c-3 8-3 16-3 25l2 68-2 79 2 36-1 8c-29 4-57 8-87 1l1-34v-37l-1-25v-97c5-16-2-29-8-43l-16-41c-19-42-36-84-51-127l-11-26-21-47c-2-5-1-8 5-9l24-2 65 1 9 25z" fill="#FDFDFD"></path><path d="M1886 1365c0-20 0-39 6-57l3-6h194l60 2 8-1c8-1 9 0 11 6 7 23 10 46 0 69-3 6-6 8-11 8h-70l-13-1-2 5v102l-1 32 1 31 2 23v16l-2 140-3 55c-25 8-67 7-84-3l1-16-2-46 3-70c1-20 0-41-1-61v-164l3-43h-89c-9 0-11-1-12-11l-2-10z" fill="#FEFEFE"></path><path d="M2330 227v42l-2 48v33l2 24v77l1 21 1 26c5 33 1 65 2 97v17c10 4 19 2 27 2l37-2 75 2 4 29c2 16 2 31-3 46-3 8-4 9-12 8-15-3-29-4-44-1h-3l-111 2-54-2c-5-5-6-11-6-18l2-62-2-27c0-7-1-13 1-19 2-15-1-30-2-45l-1-12c3-19 2-38 2-57v-85a13357 13357 0 0 1 0-147l2-10c0-5 3-7 7-8 18-3 35-2 52-1l17 1c7 0 8 1 8 7v14z" fill="#FDFDFD"></path><path d="m1976 1125 2 33c9 3 18 1 26 1 5 1 10-1 15-1h57l40 3 3 17c3 18 5 36-1 54-3 10-4 12-14 10a182 182 0 0 0-56 0c-16-2-32 1-47 1-25 1-49 0-73-1h-34c-8-6-7-15-6-24l2-59-2-20v-22l-1-41 1-34V764c0-8 3-11 10-12l21-2 48 2c5 0 6 2 6 7v63l-1 5v74l2 30-2 60 1 13c0 9 3 18 2 27-1 7 1 15 1 22l2 67-2 5z" fill="#FEFEFE"></path><path d="m1695 203 1 12v1580c-9 2-18 1-27 1V203h26z" fill="#F6F6F6"></path><path d="M1319 418a349 349 0 0 1-70 214l-6 6c-5-28-13-55-24-80-12-24-27-47-44-70 57-34 100-82 138-136 4 9 6 27 6 66zM200 353l41 51c26 30 54 58 89 79l7 6a338 338 0 0 0-69 151l-7-9c-33-45-54-95-63-150-6-36-4-72-3-108 0-6 3-13 5-20z" fill="#F2426B"></path></g></svg>